<svg width="31" height="31" viewBox="0 0 31 31" fill="none" xmlns="http://www.w3.org/2000/svg">
<path fill-rule="evenodd" clip-rule="evenodd" d="M17.086 24.3607C16.5711 24.4522 16.0411 24.5 15.5 24.5C10.5294 24.5 6.5 20.4706 6.5 15.5C6.5 10.5294 10.5294 6.5 15.5 6.5C20.4706 6.5 24.5 10.5294 24.5 15.5C24.5 16.3705 24.3764 17.2121 24.1459 18.0082C24.2632 18.0028 24.3813 18 24.5 18C26.7547 18 28.7771 18.9949 30.1519 20.5697C30.7015 18.9812 31 17.2755 31 15.5C31 6.93959 24.0604 0 15.5 0C6.93959 0 0 6.93959 0 15.5C0 24.0604 6.93959 31 15.5 31C16.7048 31 17.8774 30.8625 19.0032 30.6025C17.7601 29.264 17 27.4708 17 25.5C17 25.1127 17.0294 24.7322 17.086 24.3607Z" fill="#0083D1"/>
<circle cx="24.5" cy="25.5" r="5.5" fill="#FF6F61"/>
<path fill-rule="evenodd" clip-rule="evenodd" d="M17.086 24.3607C16.5711 24.4522 16.0411 24.5 15.5 24.5C10.5294 24.5 6.5 20.4706 6.5 15.5C6.5 10.5294 10.5294 6.5 15.5 6.5C20.4706 6.5 24.5 10.5294 24.5 15.5C24.5 16.3705 24.3764 17.2121 24.1459 18.0082C24.2632 18.0028 24.3813 18 24.5 18C26.7547 18 28.7771 18.9949 30.1519 20.5697C30.7015 18.9812 31 17.2755 31 15.5C31 6.93959 24.0604 0 15.5 0C6.93959 0 0 6.93959 0 15.5C0 24.0604 6.93959 31 15.5 31C16.7048 31 17.8774 30.8625 19.0032 30.6025C17.7601 29.264 17 27.4708 17 25.5C17 25.1127 17.0294 24.7322 17.086 24.3607Z" fill="#0083D1"/>
</svg>
