<svg width="142" height="52" viewBox="0 0 142 52" fill="none" xmlns="http://www.w3.org/2000/svg">
<mask id="mask0_117_83" style="mask-type:alpha" maskUnits="userSpaceOnUse" x="0" y="0" width="142" height="52">
<rect width="142" height="52" fill="#D9D9D9"/>
</mask>
<g mask="url(#mask0_117_83)">
<path d="M58.416 12.408V39H51.648V35.64C50.784 36.792 49.648 37.704 48.24 38.376C46.864 39.016 45.36 39.336 43.728 39.336C41.648 39.336 39.808 38.904 38.208 38.04C36.608 37.144 35.344 35.848 34.416 34.152C33.52 32.424 33.072 30.376 33.072 28.008V12.408H39.792V27.048C39.792 29.16 40.32 30.792 41.376 31.944C42.432 33.064 43.872 33.624 45.696 33.624C47.552 33.624 49.008 33.064 50.064 31.944C51.12 30.792 51.648 29.16 51.648 27.048V12.408H58.416ZM65.0944 9.24C63.9104 9.24 62.9184 8.872 62.1184 8.136C61.3504 7.368 60.9664 6.424 60.9664 5.304C60.9664 4.184 61.3504 3.256 62.1184 2.52C62.9184 1.752 63.9104 1.368 65.0944 1.368C66.2784 1.368 67.2544 1.752 68.0224 2.52C68.8224 3.256 69.2224 4.184 69.2224 5.304C69.2224 6.424 68.8224 7.368 68.0224 8.136C67.2544 8.872 66.2784 9.24 65.0944 9.24ZM68.4064 12.408V39H61.6864V12.408H68.4064ZM69.9577 25.704C69.9577 22.952 70.5177 20.552 71.6377 18.504C72.7577 16.424 74.3097 14.824 76.2937 13.704C78.2777 12.552 80.5497 11.976 83.1097 11.976C86.4057 11.976 89.1258 12.808 91.2698 14.472C93.4457 16.104 94.9017 18.408 95.6377 21.384H88.3898C88.0058 20.232 87.3498 19.336 86.4217 18.696C85.5257 18.024 84.4057 17.688 83.0617 17.688C81.1417 17.688 79.6217 18.392 78.5017 19.8C77.3817 21.176 76.8217 23.144 76.8217 25.704C76.8217 28.232 77.3817 30.2 78.5017 31.608C79.6217 32.984 81.1417 33.672 83.0617 33.672C85.7818 33.672 87.5578 32.456 88.3898 30.024H95.6377C94.9017 32.904 93.4457 35.192 91.2698 36.888C89.0937 38.584 86.3737 39.432 83.1097 39.432C80.5497 39.432 78.2777 38.872 76.2937 37.752C74.3097 36.6 72.7577 35 71.6377 32.952C70.5177 30.872 69.9577 28.456 69.9577 25.704ZM112.945 39L103.921 27.672V39H97.2008V3.48H103.921V23.688L112.849 12.408H121.585L109.873 25.752L121.681 39H112.945ZM128.592 10.92V19.32H139.872V24.648H128.592V33.528H141.312V39H121.872V5.448H141.312V10.92H128.592Z" fill="#0083D1"/>
<path d="M118.45 40.53V51H116.35V44.19L113.545 51H111.955L109.135 44.19V51H107.035V40.53H109.42L112.75 48.315L116.08 40.53H118.45ZM119.986 46.815C119.986 45.975 120.151 45.23 120.481 44.58C120.821 43.93 121.276 43.43 121.846 43.08C122.426 42.73 123.071 42.555 123.781 42.555C124.401 42.555 124.941 42.68 125.401 42.93C125.871 43.18 126.246 43.495 126.526 43.875V42.69H128.641V51H126.526V49.785C126.256 50.175 125.881 50.5 125.401 50.76C124.931 51.01 124.386 51.135 123.766 51.135C123.066 51.135 122.426 50.955 121.846 50.595C121.276 50.235 120.821 49.73 120.481 49.08C120.151 48.42 119.986 47.665 119.986 46.815ZM126.526 46.845C126.526 46.335 126.426 45.9 126.226 45.54C126.026 45.17 125.756 44.89 125.416 44.7C125.076 44.5 124.711 44.4 124.321 44.4C123.931 44.4 123.571 44.495 123.241 44.685C122.911 44.875 122.641 45.155 122.431 45.525C122.231 45.885 122.131 46.315 122.131 46.815C122.131 47.315 122.231 47.755 122.431 48.135C122.641 48.505 122.911 48.79 123.241 48.99C123.581 49.19 123.941 49.29 124.321 49.29C124.711 49.29 125.076 49.195 125.416 49.005C125.756 48.805 126.026 48.525 126.226 48.165C126.426 47.795 126.526 47.355 126.526 46.845ZM132.792 43.98C133.062 43.54 133.412 43.195 133.842 42.945C134.282 42.695 134.782 42.57 135.342 42.57V44.775H134.787C134.127 44.775 133.627 44.93 133.287 45.24C132.957 45.55 132.792 46.09 132.792 46.86V51H130.692V42.69H132.792V43.98ZM139.202 44.415V48.435C139.202 48.715 139.267 48.92 139.397 49.05C139.537 49.17 139.767 49.23 140.087 49.23H141.062V51H139.742C137.972 51 137.087 50.14 137.087 48.42V44.415H136.097V42.69H137.087V40.635H139.202V42.69H141.062V44.415H139.202Z" fill="#FF6F61"/>
<path fill-rule="evenodd" clip-rule="evenodd" d="M17.086 32.3607C16.5711 32.4522 16.0411 32.5 15.5 32.5C10.5294 32.5 6.5 28.4706 6.5 23.5C6.5 18.5294 10.5294 14.5 15.5 14.5C20.4706 14.5 24.5 18.5294 24.5 23.5C24.5 24.3705 24.3764 25.2121 24.1459 26.0082C24.2632 26.0028 24.3813 26 24.5 26C26.7547 26 28.7771 26.9949 30.1519 28.5697C30.7015 26.9812 31 25.2755 31 23.5C31 14.9396 24.0604 8 15.5 8C6.93959 8 0 14.9396 0 23.5C0 32.0604 6.93959 39 15.5 39C16.7048 39 17.8774 38.8625 19.0032 38.6025C17.7601 37.264 17 35.4708 17 33.5C17 33.1127 17.0294 32.7322 17.086 32.3607Z" fill="#0083D1"/>
<circle cx="24.5" cy="33.5" r="5.5" fill="#FF6F61"/>
<circle cx="65.5" cy="5.5" r="4.5" fill="#FF6F61"/>
</g>
</svg>
