<svg width="2134" height="353" viewBox="0 0 2134 353" fill="none" xmlns="http://www.w3.org/2000/svg">
<mask id="mask0_1737_3" style="mask-type:alpha" maskUnits="userSpaceOnUse" x="0" y="0" width="2134" height="353">
<rect width="2134" height="353" fill="#D9D9D9"/>
</mask>
<g mask="url(#mask0_1737_3)">
<path fillRule="evenodd" clipRule="evenodd" d="M242 0H0V159.892L52.2216 200.388L103.931 241.406H0V348L156.409 348L195.319 296.532L237.557 240.36V348L342 348V100C342 44.7715 297.228 0 242 0ZM237.556 105.027H103.931V240.36H237.556V105.027Z" fill="#0082DE"/>
<path d="M681.84 200.61C681.84 210.81 681.16 219.99 679.8 228.15H473.25C474.95 248.55 482.09 264.53 494.67 276.09C507.25 287.65 522.72 293.43 541.08 293.43C567.6 293.43 586.47 282.04 597.69 259.26H674.7C666.54 286.46 650.9 308.9 627.78 326.58C604.66 343.92 576.27 352.59 542.61 352.59C515.41 352.59 490.93 346.64 469.17 334.74C447.75 322.5 430.92 305.33 418.68 283.23C406.78 261.13 400.83 235.63 400.83 206.73C400.83 177.49 406.78 151.82 418.68 129.72C430.58 107.62 447.24 90.62 468.66 78.72C490.08 66.82 514.73 60.87 542.61 60.87C569.47 60.87 593.44 66.65 614.52 78.21C635.94 89.77 652.43 106.26 663.99 127.68C675.89 148.76 681.84 173.07 681.84 200.61ZM607.89 180.21C607.55 161.85 600.92 147.23 588 136.35C575.08 125.13 559.27 119.52 540.57 119.52C522.89 119.52 507.93 124.96 495.69 135.84C483.79 146.38 476.48 161.17 473.76 180.21H607.89ZM890.016 348L831.876 260.28L780.366 348H703.866L796.176 206.22L702.846 65.46H783.426L841.056 152.67L893.076 65.46H969.576L876.756 206.22L970.596 348H890.016ZM1092.51 124.11V260.79C1092.51 270.31 1094.72 277.28 1099.14 281.7C1103.9 285.78 1111.72 287.82 1122.6 287.82H1155.75V348H1110.87C1050.69 348 1020.6 318.76 1020.6 260.28V124.11H986.936V65.46H1020.6V-4.41002H1092.51V65.46H1155.75V124.11H1092.51ZM1332.56 352.59C1305.36 352.59 1280.88 346.64 1259.12 334.74C1237.36 322.5 1220.19 305.33 1207.61 283.23C1195.37 261.13 1189.25 235.63 1189.25 206.73C1189.25 177.83 1195.54 152.33 1208.12 130.23C1221.04 108.13 1238.55 91.13 1260.65 79.23C1282.75 66.99 1307.4 60.87 1334.6 60.87C1361.8 60.87 1386.45 66.99 1408.55 79.23C1430.65 91.13 1447.99 108.13 1460.57 130.23C1473.49 152.33 1479.95 177.83 1479.95 206.73C1479.95 235.63 1473.32 261.13 1460.06 283.23C1447.14 305.33 1429.46 322.5 1407.02 334.74C1384.92 346.64 1360.1 352.59 1332.56 352.59ZM1332.56 290.37C1345.48 290.37 1357.55 287.31 1368.77 281.19C1380.33 274.73 1389.51 265.21 1396.31 252.63C1403.11 240.05 1406.51 224.75 1406.51 206.73C1406.51 179.87 1399.37 159.3 1385.09 145.02C1371.15 130.4 1353.98 123.09 1333.58 123.09C1313.18 123.09 1296.01 130.4 1282.07 145.02C1268.47 159.3 1261.67 179.87 1261.67 206.73C1261.67 233.59 1268.3 254.33 1281.56 268.95C1295.16 283.23 1312.16 290.37 1332.56 290.37ZM1688.89 61.38C1722.55 61.38 1749.75 72.09 1770.49 93.51C1791.23 114.59 1801.6 144.17 1801.6 182.25V348H1730.2V191.94C1730.2 169.5 1724.59 152.33 1713.37 140.43C1702.15 128.19 1686.85 122.07 1667.47 122.07C1647.75 122.07 1632.11 128.19 1620.55 140.43C1609.33 152.33 1603.72 169.5 1603.72 191.94V348H1532.32V65.46H1603.72V100.65C1613.24 88.41 1625.31 78.89 1639.93 72.09C1654.89 64.95 1671.21 61.38 1688.89 61.38ZM2132.15 200.61C2132.15 210.81 2131.47 219.99 2130.11 228.15H1923.56C1925.26 248.55 1932.4 264.53 1944.98 276.09C1957.56 287.65 1973.03 293.43 1991.39 293.43C2017.91 293.43 2036.78 282.04 2048 259.26H2125.01C2116.85 286.46 2101.21 308.9 2078.09 326.58C2054.97 343.92 2026.58 352.59 1992.92 352.59C1965.72 352.59 1941.24 346.64 1919.48 334.74C1898.06 322.5 1881.23 305.33 1868.99 283.23C1857.09 261.13 1851.14 235.63 1851.14 206.73C1851.14 177.49 1857.09 151.82 1868.99 129.72C1880.89 107.62 1897.55 90.62 1918.97 78.72C1940.39 66.82 1965.04 60.87 1992.92 60.87C2019.78 60.87 2043.75 66.65 2064.83 78.21C2086.25 89.77 2102.74 106.26 2114.3 127.68C2126.2 148.76 2132.15 173.07 2132.15 200.61ZM2058.2 180.21C2057.86 161.85 2051.23 147.23 2038.31 136.35C2025.39 125.13 2009.58 119.52 1990.88 119.52C1973.2 119.52 1958.24 124.96 1946 135.84C1934.1 146.38 1926.79 161.17 1924.07 180.21H2058.2Z" fill="#0082DE"/>
</g>
</svg>
